<?xml version="1.0" encoding="UTF-8"?>
<svg width="512px" height="512px" viewBox="0 0 512 512" version="1.1" xmlns="http://www.w3.org/2000/svg" xmlns:xlink="http://www.w3.org/1999/xlink">
    <title>logo-512*512</title>
    <defs>
        <polygon id="path-1" points="0 0 512 0 512 512 0 512"></polygon>
    </defs>
    <g id="页面-1" stroke="none" stroke-width="1" fill="none" fill-rule="evenodd">
        <g id="logo-512*512">
            <mask id="mask-2" fill="white">
                <use xlink:href="#path-1"></use>
            </mask>
            <g id="path-1"></g>
            <path d="M303.109853,326.175305 L303.109853,352.141341 C303.109853,377.939945 281.967946,398.924854 256.008366,398.924854 C230.020857,398.924854 208.892915,377.939945 208.892915,352.141341 L208.892915,326.175305 C208.892915,306.501953 192.820039,290.553979 173.004739,290.553979 C153.189438,290.553979 137.116561,306.501953 137.116561,326.175305 L137.116561,352.141341 C137.116561,417.230839 190.446113,470.18146 256.008366,470.18146 C321.54269,470.18146 374.886206,417.230839 374.886206,352.141341 L374.886206,326.175305 C374.886206,306.501953 358.81333,290.553979 338.984065,290.553979 C319.168764,290.553979 303.109853,306.501953 303.109853,326.175305 M302.746781,77.5376101 C302.746781,86.9975628 306.489206,95.5784934 312.5497,101.94094 C319.5458,112.754307 323.790937,125.897781 323.790937,141.120213 C323.790937,156.286833 319.573728,166.542091 312.605557,177.271743 C308.234739,180.313439 304.436458,184.108582 301.378283,188.447882 C290.332544,195.284721 271.187528,199.428682 256.008366,199.428682 C240.675596,199.428682 221.460759,195.201005 210.484843,188.280449 C207.454595,184.010913 203.698207,180.27158 199.383247,177.271743 C192.429039,166.542091 188.197865,156.286833 188.197865,141.120213 C188.197865,125.897781 192.443004,112.754307 199.453068,101.94094 C205.513562,95.5784934 209.242022,86.9975628 209.242022,77.5376101 C209.242022,57.9200679 193.225003,42 173.451595,42 C153.692151,42 137.647204,57.9200679 137.647204,77.5376101 C137.647204,87.0673264 141.431522,95.6622098 147.547873,102.052562 C154.460187,112.796166 158.607575,126.037309 158.607575,141.120213 C158.607575,156.091495 154.488115,166.444423 147.659587,177.076405 C143.204984,180.118101 139.364809,183.941149 136.250776,188.322308 C125.442431,195.22891 115.122835,199.428682 99.8459222,199.428682 C84.5131525,199.428682 71.2610593,195.201005 60.3828921,188.266497 C53.9593273,182.238916 45.3294078,178.513536 35.8057749,178.513536 C16.032367,178.513536 0.00138378378,194.433604 0.00138378378,214.065099 C0.00138378378,233.696594 16.032367,249.616661 35.8057749,249.616661 C45.3713006,249.616661 54.0570772,245.849424 60.480642,239.766033 C71.3169163,232.929194 84.6527952,228.813137 99.8459222,228.813137 C114.927335,228.813137 125.358645,232.887335 136.055277,239.682316 C144.23834,251.430517 157.895397,259.160331 173.395738,259.160331 C188.784365,259.160331 202.371601,251.528187 210.568628,239.877654 C221.516617,232.971052 240.731454,228.813137 256.008366,228.813137 C271.1596,228.813137 290.374437,232.929194 301.364318,239.779985 C309.547381,251.486328 323.162546,259.160331 338.60703,259.160331 C354.093406,259.160331 367.750464,251.430517 375.933526,239.682316 C386.644122,232.887335 397.075432,228.813137 412.156846,228.813137 C427.336008,228.813137 440.685851,232.929194 451.508161,239.766033 C457.931726,245.849424 466.617503,249.616661 476.183028,249.616661 C495.9704,249.616661 512.001384,233.696594 512.001384,214.065099 C512.001384,194.433604 495.9704,178.513536 476.183028,178.513536 C466.67336,178.513536 458.029476,182.238916 451.619876,188.266497 C440.741709,195.201005 427.489615,199.428682 412.156846,199.428682 C396.879933,199.428682 386.546372,195.22891 375.738026,188.322308 C372.637958,183.941149 368.783819,180.118101 364.343181,177.076405 C357.500688,166.444423 353.395192,156.091495 353.395192,141.120213 C353.395192,126.037309 357.542581,112.796166 364.440931,102.052562 C370.557282,95.6622098 374.341599,87.0673264 374.341599,77.5376101 C374.341599,57.9200679 358.310616,42 338.537208,42 C318.7638,42 302.746781,57.9200679 302.746781,77.5376101" id="Fill-3" fill="#0071EB" fill-rule="nonzero" mask="url(#mask-2)"></path>
        </g>
    </g>
</svg>
